<?xml version="1.0" standalone="no"?>
<!DOCTYPE svg PUBLIC "-//W3C//DTD SVG 20010904//EN"
 "http://www.w3.org/TR/2001/REC-SVG-20010904/DTD/svg10.dtd">
<svg version="1.0" xmlns="http://www.w3.org/2000/svg"
 width="400.000000pt" height="400.000000pt" viewBox="0 0 400.000000 400.000000"
 preserveAspectRatio="xMidYMid meet">

<g transform="translate(0.000000,400.000000) scale(0.100000,-0.100000)"
fill="#000000" stroke="none">
<path d="M2380 3120 c-25 -4 -90 -27 -145 -50 -193 -82 -220 -89 -335 -90 -58
0 -145 7 -195 15 -116 19 -170 19 -340 -4 -189 -25 -326 -62 -453 -123 -70
-34 -95 -54 -162 -126 -44 -48 -80 -89 -80 -93 0 -3 -20 -36 -43 -71 -39 -57
-207 -385 -207 -403 0 -3 -9 -27 -21 -52 -54 -120 -160 -401 -218 -582 -29
-89 -35 -99 -106 -171 -41 -43 -75 -82 -75 -86 0 -17 28 -100 44 -129 9 -16
16 -37 16 -45 0 -9 4 -20 8 -25 5 -6 24 -49 42 -98 19 -48 42 -95 53 -105 15
-13 42 -18 129 -20 119 -4 159 5 176 42 12 27 -8 72 -38 81 -16 5 -20 15 -20
50 l0 43 52 7 c152 21 415 158 561 292 21 19 40 33 41 32 2 -2 9 -15 16 -29 7
-14 28 -43 46 -65 17 -22 49 -70 69 -107 30 -56 38 -82 44 -153 5 -46 13 -91
20 -98 6 -8 46 -31 88 -53 l78 -39 170 -3 c93 -2 184 -1 202 3 40 7 67 50 51
80 -19 37 -40 45 -116 45 -71 0 -73 1 -67 23 6 19 46 101 147 302 l31 60 20
-45 c11 -25 23 -52 28 -60 44 -76 49 -96 49 -181 0 -104 7 -125 55 -172 50
-48 98 -57 313 -57 194 0 220 6 237 54 8 25 6 31 -18 52 -19 17 -40 24 -68 24
-45 0 -45 -2 -29 125 5 44 17 143 25 220 9 77 18 148 21 157 5 16 80 68 97 68
4 0 7 -7 7 -16 0 -25 58 -141 107 -216 56 -86 158 -179 237 -218 35 -16 66
-30 70 -30 7 0 192 -135 206 -150 3 -3 12 -9 21 -15 9 -5 29 -19 45 -30 26
-19 44 -20 255 -20 209 0 229 1 248 19 24 22 27 53 6 80 -11 15 -31 21 -76 24
-90 7 -100 18 -225 260 -73 141 -158 289 -184 319 -44 52 -49 70 -55 199 -6
110 -26 235 -51 322 l-6 22 149 0 c132 0 152 2 169 19 35 32 57 38 159 45 163
11 241 26 263 50 11 11 34 67 51 122 27 87 30 105 20 128 -7 14 -15 26 -19 26
-4 0 -41 22 -82 50 l-75 50 -7 61 c-13 133 -122 251 -318 346 -36 17 -69 40
-73 50 -12 35 -65 66 -120 71 -62 5 -110 -9 -146 -42 -17 -15 -45 -27 -75 -31
-27 -4 -61 -14 -75 -21 -42 -21 -156 -47 -181 -40 -13 3 -48 22 -78 41 -98 65
-156 87 -239 91 -42 1 -96 -1 -121 -6z m920 -129 c5 -11 10 -32 10 -48 1 -60
43 -86 115 -69 23 6 38 2 68 -18 21 -14 41 -26 46 -26 4 0 32 -25 63 -55 56
-56 71 -87 83 -180 6 -44 14 -57 62 -102 30 -29 59 -53 65 -53 26 0 35 -26 25
-72 -13 -55 -21 -58 -164 -58 -96 0 -199 -24 -234 -56 -12 -11 -49 -14 -160
-14 -125 1 -147 3 -166 19 -21 18 -45 89 -58 172 -12 76 -82 109 -125 59 -23
-26 -24 -40 -10 -90 6 -19 14 -61 20 -93 5 -36 21 -75 40 -103 38 -56 34 -63
-60 -95 -67 -23 -71 -25 -98 -79 -50 -100 -103 -169 -190 -250 -48 -44 -90
-80 -94 -80 -4 0 -29 -15 -55 -34 -27 -18 -58 -37 -70 -40 -46 -14 -71 -60
-77 -143 -4 -43 -13 -139 -21 -213 -8 -74 -18 -166 -22 -205 l-8 -70 -84 -3
c-124 -4 -128 0 -132 136 -3 87 -8 114 -24 138 -51 76 -92 190 -106 294 -15
113 5 229 56 332 20 40 42 80 49 88 21 25 26 48 15 79 -12 33 -46 44 -88 30
-43 -15 -119 -152 -150 -269 l-17 -65 -172 -7 c-128 -6 -192 -13 -245 -28
-101 -29 -186 -61 -227 -85 -61 -34 -132 -79 -144 -91 -6 -6 -49 -41 -96 -79
-47 -38 -86 -73 -88 -77 -2 -4 -9 -8 -15 -8 -6 0 -18 -6 -26 -14 -65 -59 -346
-165 -435 -166 -27 0 -47 -7 -63 -22 -20 -19 -23 -31 -23 -106 0 -90 -12 -104
-35 -42 -7 19 -29 77 -49 128 -41 104 -42 95 32 172 40 42 68 98 92 185 5 17
14 46 21 65 7 19 21 60 32 90 11 30 27 75 37 100 10 25 25 63 33 85 24 64 67
168 78 187 5 10 9 22 9 27 0 9 99 226 120 264 18 31 28 52 34 67 4 8 15 29 26
45 11 17 27 44 36 60 59 107 205 255 250 255 8 0 33 9 56 19 48 22 117 40 263
70 122 26 353 28 455 6 148 -32 273 -14 470 71 155 66 232 82 304 64 28 -7 62
-20 76 -29 14 -9 34 -21 45 -28 11 -7 40 -24 64 -39 38 -23 54 -27 125 -26 56
0 98 7 131 20 95 37 100 36 114 -6 21 -62 43 -84 85 -84 68 0 73 15 50 144 -5
33 -3 38 23 52 37 20 40 20 53 -3z"/>
</g>
</svg>
